<mxfile host="app.diagrams.net" modified="2024-05-19T03:47:51.168Z" agent="Mozilla/5.0 (Windows NT 10.0; Win64; x64) AppleWebKit/537.36 (KHTML, like Gecko) Chrome/124.0.0.0 Safari/537.36" etag="4R55KtnaQ_MBXz0sWxzt" version="24.4.4" type="github">
  <diagram name="第 1 页" id="4HQFFYl0oMXb8RrgsdkW">
    <mxGraphModel dx="1434" dy="738" grid="1" gridSize="10" guides="1" tooltips="1" connect="1" arrows="1" fold="1" page="1" pageScale="1" pageWidth="827" pageHeight="1169" math="0" shadow="0">
      <root>
        <mxCell id="0" />
        <mxCell id="1" parent="0" />
        <mxCell id="y11krrfXEaSfHsdXctee-1" value="" style="shape=parallelogram;perimeter=parallelogramPerimeter;whiteSpace=wrap;html=1;fixedSize=1;fillColor=#dae8fc;strokeColor=#6c8ebf;" vertex="1" parent="1">
          <mxGeometry x="350" y="350" width="120" height="60" as="geometry" />
        </mxCell>
        <mxCell id="y11krrfXEaSfHsdXctee-4" value="" style="endArrow=classic;startArrow=classic;html=1;rounded=0;" edge="1" parent="1">
          <mxGeometry width="50" height="50" relative="1" as="geometry">
            <mxPoint x="320" y="480" as="sourcePoint" />
            <mxPoint x="500" y="480" as="targetPoint" />
          </mxGeometry>
        </mxCell>
        <mxCell id="y11krrfXEaSfHsdXctee-5" value="" style="endArrow=none;html=1;rounded=0;entryX=0.5;entryY=1;entryDx=0;entryDy=0;" edge="1" parent="1" target="y11krrfXEaSfHsdXctee-1">
          <mxGeometry width="50" height="50" relative="1" as="geometry">
            <mxPoint x="410" y="480" as="sourcePoint" />
            <mxPoint x="440" y="360" as="targetPoint" />
          </mxGeometry>
        </mxCell>
        <mxCell id="y11krrfXEaSfHsdXctee-6" value="" style="rounded=1;whiteSpace=wrap;html=1;fillColor=#d5e8d4;strokeColor=#82b366;" vertex="1" parent="1">
          <mxGeometry x="200" y="450" width="120" height="60" as="geometry" />
        </mxCell>
        <mxCell id="y11krrfXEaSfHsdXctee-7" value="" style="rounded=1;whiteSpace=wrap;html=1;fillColor=#d5e8d4;strokeColor=#82b366;" vertex="1" parent="1">
          <mxGeometry x="500" y="450" width="120" height="60" as="geometry" />
        </mxCell>
        <mxCell id="y11krrfXEaSfHsdXctee-8" value="" style="endArrow=classic;html=1;rounded=0;exitX=0.5;exitY=1;exitDx=0;exitDy=0;" edge="1" parent="1" source="y11krrfXEaSfHsdXctee-6">
          <mxGeometry width="50" height="50" relative="1" as="geometry">
            <mxPoint x="390" y="561" as="sourcePoint" />
            <mxPoint x="260" y="550" as="targetPoint" />
          </mxGeometry>
        </mxCell>
        <mxCell id="y11krrfXEaSfHsdXctee-10" value="" style="endArrow=classic;html=1;rounded=0;exitX=0.5;exitY=1;exitDx=0;exitDy=0;" edge="1" parent="1" source="y11krrfXEaSfHsdXctee-7">
          <mxGeometry width="50" height="50" relative="1" as="geometry">
            <mxPoint x="270" y="520" as="sourcePoint" />
            <mxPoint x="560" y="550" as="targetPoint" />
          </mxGeometry>
        </mxCell>
        <mxCell id="y11krrfXEaSfHsdXctee-11" value="" style="shape=parallelogram;perimeter=parallelogramPerimeter;whiteSpace=wrap;html=1;fixedSize=1;fillColor=#dae8fc;strokeColor=#6c8ebf;" vertex="1" parent="1">
          <mxGeometry x="190" y="550" width="120" height="60" as="geometry" />
        </mxCell>
        <mxCell id="y11krrfXEaSfHsdXctee-12" value="" style="shape=parallelogram;perimeter=parallelogramPerimeter;whiteSpace=wrap;html=1;fixedSize=1;fillColor=#dae8fc;strokeColor=#6c8ebf;" vertex="1" parent="1">
          <mxGeometry x="500" y="550" width="120" height="60" as="geometry" />
        </mxCell>
        <mxCell id="y11krrfXEaSfHsdXctee-13" value="" style="rounded=1;whiteSpace=wrap;html=1;fillColor=#dae8fc;strokeColor=#6c8ebf;" vertex="1" parent="1">
          <mxGeometry x="280" y="630" width="220" height="60" as="geometry" />
        </mxCell>
        <mxCell id="y11krrfXEaSfHsdXctee-15" value="" style="rounded=1;whiteSpace=wrap;html=1;fillColor=#dae8fc;strokeColor=#6c8ebf;" vertex="1" parent="1">
          <mxGeometry x="280" y="700" width="220" height="60" as="geometry" />
        </mxCell>
        <mxCell id="y11krrfXEaSfHsdXctee-16" value="" style="endArrow=classic;html=1;rounded=0;exitX=0.5;exitY=1;exitDx=0;exitDy=0;" edge="1" parent="1" source="y11krrfXEaSfHsdXctee-15" target="y11krrfXEaSfHsdXctee-17">
          <mxGeometry width="50" height="50" relative="1" as="geometry">
            <mxPoint x="390" y="710" as="sourcePoint" />
            <mxPoint x="390" y="810" as="targetPoint" />
          </mxGeometry>
        </mxCell>
        <mxCell id="y11krrfXEaSfHsdXctee-19" style="edgeStyle=orthogonalEdgeStyle;rounded=0;orthogonalLoop=1;jettySize=auto;html=1;" edge="1" parent="1" source="y11krrfXEaSfHsdXctee-17">
          <mxGeometry relative="1" as="geometry">
            <mxPoint x="540" y="830" as="targetPoint" />
          </mxGeometry>
        </mxCell>
        <mxCell id="y11krrfXEaSfHsdXctee-20" style="edgeStyle=orthogonalEdgeStyle;rounded=0;orthogonalLoop=1;jettySize=auto;html=1;exitX=0;exitY=0.5;exitDx=0;exitDy=0;" edge="1" parent="1" source="y11krrfXEaSfHsdXctee-17">
          <mxGeometry relative="1" as="geometry">
            <mxPoint x="250" y="830" as="targetPoint" />
          </mxGeometry>
        </mxCell>
        <mxCell id="y11krrfXEaSfHsdXctee-17" value="" style="rhombus;whiteSpace=wrap;html=1;fillColor=#fff2cc;strokeColor=#d6b656;" vertex="1" parent="1">
          <mxGeometry x="325" y="790" width="130" height="80" as="geometry" />
        </mxCell>
        <mxCell id="y11krrfXEaSfHsdXctee-21" value="" style="rounded=1;whiteSpace=wrap;html=1;fillColor=#dae8fc;strokeColor=#6c8ebf;" vertex="1" parent="1">
          <mxGeometry x="110" y="800" width="140" height="60" as="geometry" />
        </mxCell>
        <mxCell id="y11krrfXEaSfHsdXctee-22" value="" style="rounded=1;whiteSpace=wrap;html=1;fillColor=#dae8fc;strokeColor=#6c8ebf;" vertex="1" parent="1">
          <mxGeometry x="540" y="800" width="140" height="60" as="geometry" />
        </mxCell>
        <mxCell id="y11krrfXEaSfHsdXctee-23" value="" style="endArrow=classic;html=1;rounded=0;exitX=0;exitY=0.5;exitDx=0;exitDy=0;entryX=0;entryY=0.5;entryDx=0;entryDy=0;" edge="1" parent="1" source="y11krrfXEaSfHsdXctee-11" target="y11krrfXEaSfHsdXctee-15">
          <mxGeometry width="50" height="50" relative="1" as="geometry">
            <mxPoint x="390" y="710" as="sourcePoint" />
            <mxPoint x="150" y="740" as="targetPoint" />
            <Array as="points">
              <mxPoint x="150" y="580" />
              <mxPoint x="150" y="730" />
            </Array>
          </mxGeometry>
        </mxCell>
        <mxCell id="y11krrfXEaSfHsdXctee-24" value="" style="endArrow=none;html=1;rounded=0;entryX=0;entryY=0.5;entryDx=0;entryDy=0;" edge="1" parent="1" target="y11krrfXEaSfHsdXctee-13">
          <mxGeometry width="50" height="50" relative="1" as="geometry">
            <mxPoint x="150" y="660" as="sourcePoint" />
            <mxPoint x="300" y="620" as="targetPoint" />
          </mxGeometry>
        </mxCell>
        <mxCell id="y11krrfXEaSfHsdXctee-25" value="" style="endArrow=classic;html=1;rounded=0;exitX=1;exitY=0.5;exitDx=0;exitDy=0;entryX=1;entryY=0.5;entryDx=0;entryDy=0;" edge="1" parent="1" source="y11krrfXEaSfHsdXctee-12" target="y11krrfXEaSfHsdXctee-13">
          <mxGeometry width="50" height="50" relative="1" as="geometry">
            <mxPoint x="390" y="710" as="sourcePoint" />
            <mxPoint x="440" y="660" as="targetPoint" />
            <Array as="points">
              <mxPoint x="610" y="660" />
            </Array>
          </mxGeometry>
        </mxCell>
        <mxCell id="y11krrfXEaSfHsdXctee-26" value="" style="endArrow=none;html=1;rounded=0;exitX=0.5;exitY=0;exitDx=0;exitDy=0;" edge="1" parent="1" source="y11krrfXEaSfHsdXctee-22">
          <mxGeometry width="50" height="50" relative="1" as="geometry">
            <mxPoint x="390" y="710" as="sourcePoint" />
            <mxPoint x="610" y="660" as="targetPoint" />
          </mxGeometry>
        </mxCell>
        <mxCell id="y11krrfXEaSfHsdXctee-27" value="Borehole&lt;br&gt;data" style="text;strokeColor=none;align=center;fillColor=none;html=1;verticalAlign=middle;whiteSpace=wrap;rounded=0;" vertex="1" parent="1">
          <mxGeometry x="380" y="365" width="60" height="30" as="geometry" />
        </mxCell>
        <mxCell id="y11krrfXEaSfHsdXctee-28" value="predictive spatial&lt;br&gt;rasterization" style="text;strokeColor=none;align=center;fillColor=none;html=1;verticalAlign=middle;whiteSpace=wrap;rounded=0;" vertex="1" parent="1">
          <mxGeometry x="210" y="462.5" width="100" height="35" as="geometry" />
        </mxCell>
        <mxCell id="y11krrfXEaSfHsdXctee-29" value="Borehole data&lt;br&gt;up-sampling" style="text;strokeColor=none;align=center;fillColor=none;html=1;verticalAlign=middle;whiteSpace=wrap;rounded=0;" vertex="1" parent="1">
          <mxGeometry x="510" y="462.5" width="100" height="35" as="geometry" />
        </mxCell>
        <mxCell id="y11krrfXEaSfHsdXctee-30" value="Unlabeled&lt;br&gt;grid" style="text;strokeColor=none;align=center;fillColor=none;html=1;verticalAlign=middle;whiteSpace=wrap;rounded=0;" vertex="1" parent="1">
          <mxGeometry x="220" y="565" width="60" height="30" as="geometry" />
        </mxCell>
        <mxCell id="y11krrfXEaSfHsdXctee-31" value="Labeled data" style="text;strokeColor=none;align=center;fillColor=none;html=1;verticalAlign=middle;whiteSpace=wrap;rounded=0;" vertex="1" parent="1">
          <mxGeometry x="530" y="565" width="60" height="30" as="geometry" />
        </mxCell>
        <mxCell id="y11krrfXEaSfHsdXctee-32" value="ResMLP-SSL model" style="text;strokeColor=none;align=center;fillColor=none;html=1;verticalAlign=middle;whiteSpace=wrap;rounded=0;" vertex="1" parent="1">
          <mxGeometry x="340" y="642.5" width="100" height="35" as="geometry" />
        </mxCell>
        <mxCell id="y11krrfXEaSfHsdXctee-33" value="Predicted results" style="text;strokeColor=none;align=center;fillColor=none;html=1;verticalAlign=middle;whiteSpace=wrap;rounded=0;" vertex="1" parent="1">
          <mxGeometry x="340" y="712.5" width="100" height="35" as="geometry" />
        </mxCell>
        <mxCell id="y11krrfXEaSfHsdXctee-34" value="Meet Iteration" style="text;strokeColor=none;align=center;fillColor=none;html=1;verticalAlign=middle;whiteSpace=wrap;rounded=0;" vertex="1" parent="1">
          <mxGeometry x="340" y="812.5" width="100" height="35" as="geometry" />
        </mxCell>
        <mxCell id="y11krrfXEaSfHsdXctee-35" value="Yes" style="text;strokeColor=none;align=center;fillColor=none;html=1;verticalAlign=middle;whiteSpace=wrap;rounded=0;" vertex="1" parent="1">
          <mxGeometry x="265" y="830" width="60" height="30" as="geometry" />
        </mxCell>
        <mxCell id="y11krrfXEaSfHsdXctee-36" value="NO" style="text;strokeColor=none;align=center;fillColor=none;html=1;verticalAlign=middle;whiteSpace=wrap;rounded=0;" vertex="1" parent="1">
          <mxGeometry x="470" y="830" width="60" height="30" as="geometry" />
        </mxCell>
        <mxCell id="y11krrfXEaSfHsdXctee-37" value="Predicting&lt;span style=&quot;color: rgba(0, 0, 0, 0); font-family: monospace; font-size: 0px; text-align: start; text-wrap: nowrap;&quot;&gt;%3CmxGraphModel%3E%3Croot%3E%3CmxCell%20id%3D%220%22%2F%3E%3CmxCell%20id%3D%221%22%20parent%3D%220%22%2F%3E%3CmxCell%20id%3D%222%22%20value%3D%22Meet%20Iteration%22%20style%3D%22text%3BstrokeColor%3Dnone%3Balign%3Dcenter%3BfillColor%3Dnone%3Bhtml%3D1%3BverticalAlign%3Dmiddle%3BwhiteSpace%3Dwrap%3Brounded%3D0%3B%22%20vertex%3D%221%22%20parent%3D%221%22%3E%3CmxGeometry%20x%3D%22340%22%20y%3D%22812.5%22%20width%3D%22100%22%20height%3D%2235%22%20as%3D%22geometry%22%2F%3E%3C%2FmxCell%3E%3C%2Froot%3E%3C%2FmxGraphModel%3E&lt;/span&gt;" style="text;strokeColor=none;align=center;fillColor=none;html=1;verticalAlign=middle;whiteSpace=wrap;rounded=0;" vertex="1" parent="1">
          <mxGeometry x="40" y="642.5" width="100" height="35" as="geometry" />
        </mxCell>
        <mxCell id="y11krrfXEaSfHsdXctee-38" value="&lt;div style=&quot;text-align: center;&quot;&gt;&lt;span style=&quot;text-align: start; background-color: initial;&quot;&gt;&lt;font face=&quot;Times New Roman, Times, STKaiTi, KaiTi, SimSun, Microsoft Yahei&quot; color=&quot;#1b538c&quot;&gt;&lt;b&gt;Training&lt;/b&gt;&lt;/font&gt;&lt;/span&gt;&lt;span style=&quot;color: rgba(0, 0, 0, 0); font-family: monospace; font-size: 0px; text-align: start; text-wrap: nowrap; background-color: initial;&quot;&gt;%3CmxGraphModel%3E%3Croot%3E%3CmxCell%20id%3D%220%22%2F%3E%3CmxCell%20id%3D%221%22%20parent%3D%220%22%2F%3E%3CmxCell%20id%3D%222%22%20value%3D%22Meet%20Iteration%22%20style%3D%22text%3BstrokeColor%3Dnone%3Balign%3Dcenter%3BfillColor%3Dnone%3Bhtml%3D1%3BverticalAlign%3Dmiddle%3BwhiteSpace%3Dwrap%3Brounded%3D0%3B%22%20vertex%3D%221%22%20parent%3D%221%22%3E%3CmxGeometry%20x%3D%22340%22%20y%3D%22812.5%22%20width%3D%22100%22%20height%3D%2235%22%20as%3D%22geometry%22%2F%3E%3C%2FmxCell%3E%3C%2Froot%3E%3C%2FmxGraphModel%3E&lt;/span&gt;&lt;span style=&quot;font-size: 0px; text-align: start; text-wrap: nowrap; background-color: initial;&quot; value=&quot;1&quot; class=&quot;translate_span&quot;&gt; 预测% 3C mxgraphmodel % 3E % 3C root % 3E % 3C mxcell % 20id % 3D % 220% 22% 2F % 3E % 3C mxcell % 20id % 3D % 221% 22% 20父代% 3D % 220% 22% 2F % 3E % 3C mxcell % 20id % 3D % 222% 22% 20 value % 3D % 22 meet % 20迭代% 22 % 20style % 3D %文本%3BstrokeColor%3Dnone%&lt;/span&gt;&lt;/div&gt;" style="text;strokeColor=none;align=center;fillColor=none;html=1;verticalAlign=middle;whiteSpace=wrap;rounded=0;" vertex="1" parent="1">
          <mxGeometry x="620" y="642.5" width="100" height="35" as="geometry" />
        </mxCell>
        <mxCell id="y11krrfXEaSfHsdXctee-39" value="Output 3D&lt;br&gt;geological model" style="text;strokeColor=none;align=center;fillColor=none;html=1;verticalAlign=middle;whiteSpace=wrap;rounded=0;" vertex="1" parent="1">
          <mxGeometry x="130" y="812.5" width="100" height="35" as="geometry" />
        </mxCell>
        <mxCell id="y11krrfXEaSfHsdXctee-40" value="Labeling unlabelef&lt;br&gt;data with high&lt;br&gt;confidence" style="text;strokeColor=none;align=center;fillColor=none;html=1;verticalAlign=middle;whiteSpace=wrap;rounded=0;" vertex="1" parent="1">
          <mxGeometry x="560" y="812.5" width="100" height="35" as="geometry" />
        </mxCell>
      </root>
    </mxGraphModel>
  </diagram>
</mxfile>
